<svg xmlns="http://www.w3.org/2000/svg" viewBox="0 0 960 540" role="img" aria-label="Benchmark competitor AIO GEO CVI">
  <rect width="960" height="540" fill="#121212"/>
  <rect width="960" height="56" fill="#161616"/>
  <text x="28" y="34" fill="#F3EDE3" font-family="Inter, system-ui, sans-serif" font-size="15" font-weight="650">centropic<tspan fill="#E8A04A">.ai</tspan></text>
  <g font-family="Inter, system-ui, sans-serif" font-size="12" font-weight="600">
    <rect x="248" y="16" width="92" height="24" rx="12" fill="none" stroke="rgba(243,237,227,0.18)"/>
    <text x="294" y="33" text-anchor="middle" fill="#F3EDE3">Panoramica</text>
    <rect x="348" y="16" width="88" height="24" rx="12" fill="#E8A04A"/>
    <text x="392" y="33" text-anchor="middle" fill="#121212">Benchmark</text>
    <rect x="444" y="16" width="72" height="24" rx="12" fill="none" stroke="rgba(243,237,227,0.18)"/>
    <text x="480" y="33" text-anchor="middle" fill="#F3EDE3">Prompt</text>
    <rect x="524" y="16" width="64" height="24" rx="12" fill="none" stroke="rgba(243,237,227,0.18)"/>
    <text x="556" y="33" text-anchor="middle" fill="#F3EDE3">Trend</text>
    <rect x="596" y="16" width="62" height="24" rx="12" fill="none" stroke="rgba(243,237,227,0.18)"/>
    <text x="627" y="33" text-anchor="middle" fill="#F3EDE3">Guida</text>
  </g>
  <rect x="860" y="18" width="72" height="20" rx="10" fill="none" stroke="#E8A04A"/>
  <text x="896" y="33" text-anchor="middle" fill="#E8A04A" font-family="Inter, system-ui, sans-serif" font-size="11">Plus</text>

  <text x="28" y="96" fill="rgba(243,237,227,0.45)" font-family="Inter, system-ui, sans-serif" font-size="11" letter-spacing="1.4">BENCHMARK</text>
  <text x="28" y="128" fill="#F3EDE3" font-family="Inter, system-ui, sans-serif" font-size="28" font-weight="700">Snapshot AIO / GEO / CVI</text>
  <text x="28" y="154" fill="rgba(243,237,227,0.5)" font-family="Inter, system-ui, sans-serif" font-size="13">Stesse metriche del dominio attivo · priorità relative</text>

  <g font-family="Inter, system-ui, sans-serif">
    <rect x="28" y="176" width="904" height="72" fill="#1A1A1A"/>
    <text x="48" y="206" fill="#F3EDE3" font-size="16" font-weight="700">example.com</text>
    <text x="48" y="228" fill="rgba(243,237,227,0.45)" font-size="12">tuo dominio</text>
    <text x="420" y="220" fill="#F3EDE3" font-size="15">AIO 81 · GEO 74</text>
    <text x="720" y="220" fill="#F59E0B" font-size="20" font-weight="720">BB</text>
    <text x="768" y="220" fill="rgba(243,237,227,0.45)" font-size="13">78</text>

    <rect x="28" y="256" width="904" height="64" fill="#1A1A1A"/>
    <text x="48" y="294" fill="#F3EDE3" font-size="15">rivale-a.com</text>
    <text x="420" y="294" fill="rgba(243,237,227,0.7)" font-size="15">AIO 86 · GEO 80</text>
    <text x="720" y="294" fill="#22C55E" font-size="18" font-weight="720">AA</text>
    <text x="768" y="294" fill="rgba(243,237,227,0.45)" font-size="13">84</text>

    <rect x="28" y="328" width="904" height="64" fill="#1A1A1A"/>
    <text x="48" y="366" fill="#F3EDE3" font-size="15">rivale-b.com</text>
    <text x="420" y="366" fill="rgba(243,237,227,0.7)" font-size="15">AIO 54 · GEO 48</text>
    <text x="720" y="366" fill="#F97316" font-size="18" font-weight="720">CC</text>
    <text x="768" y="366" fill="rgba(243,237,227,0.45)" font-size="13">51</text>

    <rect x="28" y="400" width="904" height="64" fill="#1A1A1A"/>
    <text x="48" y="438" fill="#F3EDE3" font-size="15">rivale-c.com</text>
    <text x="420" y="438" fill="rgba(243,237,227,0.7)" font-size="15">AIO 71 · GEO 69</text>
    <text x="720" y="438" fill="#F59E0B" font-size="18" font-weight="720">BB</text>
    <text x="768" y="438" fill="rgba(243,237,227,0.45)" font-size="13">70</text>
  </g>

  <text x="28" y="518" fill="rgba(243,237,227,0.4)" font-family="Inter, system-ui, sans-serif" font-size="12">Scala CVI DD · CC · BB · AA — non è un ranking assoluto</text>
</svg>
